<?xml version="1.0" encoding="UTF-8" standalone="no"?>
<!-- Created with Inkscape (http://www.inkscape.org/) -->

<svg
   width="241.19875"
   height="162.91678"
   viewBox="0 0 63.817167 43.105064"
   version="1.1"
   id="svg5"
   inkscape:version="1.2.2 (b0a8486541, 2022-12-01)"
   sodipodi:docname="logo-vns-garage-red-transparent.svg"
   inkscape:export-filename="logo-vns-garage.png"
   inkscape:export-xdpi="96"
   inkscape:export-ydpi="96"
   xml:space="preserve"
   xmlns:inkscape="http://www.inkscape.org/namespaces/inkscape"
   xmlns:sodipodi="http://sodipodi.sourceforge.net/DTD/sodipodi-0.dtd"
   xmlns="http://www.w3.org/2000/svg"
   xmlns:svg="http://www.w3.org/2000/svg"><sodipodi:namedview
     id="namedview7"
     pagecolor="#ffffff"
     bordercolor="#000000"
     borderopacity="0.25"
     inkscape:showpageshadow="2"
     inkscape:pageopacity="0.0"
     inkscape:pagecheckerboard="0"
     inkscape:deskcolor="#d1d1d1"
     inkscape:document-units="mm"
     showgrid="false"
     inkscape:zoom="1.15"
     inkscape:cx="36.521739"
     inkscape:cy="116.52174"
     inkscape:window-width="1920"
     inkscape:window-height="1043"
     inkscape:window-x="0"
     inkscape:window-y="0"
     inkscape:window-maximized="1"
     inkscape:current-layer="layer1" /><defs
     id="defs2" /><g
     inkscape:label="Layer 1"
     inkscape:groupmode="layer"
     id="layer1"
     transform="translate(54.787548,-20.267016)"><text
       xml:space="preserve"
       style="font-weight:bold;font-size:16.5019px;font-family:'Noto Mono';-inkscape-font-specification:'Noto Mono Bold';letter-spacing:-1.53503px;fill:#ee0000;stroke:#ffffff;stroke-width:0.570177;stroke-miterlimit:10;stroke-dasharray:none;stroke-opacity:1;fill-opacity:1"
       x="-54.677235"
       y="61.862839"
       id="text236"><tspan
         sodipodi:role="line"
         id="tspan234"
         style="font-style:normal;font-variant:normal;font-weight:bold;font-stretch:normal;font-family:FreeSans;-inkscape-font-specification:'FreeSans Bold';fill:#ee0000;stroke:#ffffff;stroke-width:0.570177;stroke-dasharray:none;stroke-opacity:1;fill-opacity:1"
         x="-54.677235"
         y="61.862839"
         dx="0"
         rotate="0 0 0 0 0 0 0">GARAGE</tspan></text><g
       aria-label="VN's"
       id="text236-3"
       style="font-weight:bold;font-size:20.7138px;font-family:'Noto Mono';-inkscape-font-specification:'Noto Mono Bold';fill:#ee0000;stroke:#ffffff;stroke-width:0.524661;stroke-miterlimit:10;stroke-dasharray:none;stroke-opacity:1;fill-opacity:1"
       transform="matrix(1.4034493,0,0,1.4034493,1.0556416,-18.154218)"><path
         d="m -29.354974,46.533077 h -2.630653 l -3.526346,-7.06733 2.25887,-2.903803 2.655301,6.242649 2.842049,-10.642108 3.354831,-2.006473 z"
         style="font-family:FreeSans;-inkscape-font-specification:'FreeSans Bold';stroke:#ffffff;stroke-width:0.524661;stroke-dasharray:none;stroke-opacity:1;fill:#ee0000;fill-opacity:1"
         id="path883"
         sodipodi:nodetypes="cccccccc" /><path
         d="m -14.386331,46.533077 -6.069143,-10.439755 v 10.439755 h -3.10707 V 30.08478 l 3.189925,-0.442575 5.986288,12.064557 V 29.642205 l 3.10707,0.399853 v 16.491019 z"
         style="font-family:FreeSans;-inkscape-font-specification:'FreeSans Bold';stroke:#ffffff;stroke-width:0.524661;stroke-dasharray:none;stroke-opacity:1;fill:#ee0000;fill-opacity:1"
         id="path885"
         sodipodi:nodetypes="ccccccccccc" /><path
         d="m -7.1953724,31.92123 0.051411,2.204281 -0.8699797,2.67208 h -1.1599728 l -0.8285521,-2.67208 v -3.450544 z"
         style="font-family:FreeSans;-inkscape-font-specification:'FreeSans Bold';stroke:#ffffff;stroke-width:0.524661;stroke-dasharray:none;stroke-opacity:1;fill:#ee0000;fill-opacity:1"
         id="path887"
         sodipodi:nodetypes="ccccccc" /><path
         d="m -4.7946219,43.281011 c 0.096664,0.469513 0.2899933,0.828552 0.5799865,1.077117 0.3038024,0.248566 0.8699796,0.372849 1.6985316,0.372849 0.6766508,0 1.2014004,-0.09667 1.57424887,-0.289994 0.3866576,-0.193329 0.5799864,-0.462608 0.5799864,-0.807838 0,-0.220947 -0.075951,-0.400467 -0.2278518,-0.538559 -0.138092,-0.138092 -0.3866576,-0.262375 -0.74569687,-0.372848 L -4.7946219,41.64462 c -0.013809,0 -0.096664,-0.02071 -0.2485655,-0.06214 -0.1519012,-0.05524 -0.2623748,-0.09667 -0.3314208,-0.124283 -0.055237,-0.02762 -0.1657103,-0.06905 -0.3314208,-0.124283 -0.1657104,-0.06905 -0.2968978,-0.138092 -0.3935623,-0.207138 -0.3347692,-0.184009 -0.542323,-0.361635 -0.7657216,-0.577091 -0.3122012,-0.281426 -0.5033623,-0.604929 -0.5880169,-0.997158 -0.041427,-0.207138 -0.063227,-0.428088 -0.062141,-0.662841 0.00469,-1.013421 0.7092881,-2.165117 1.2221142,-2.713508 0.47285,-0.388571 1.1829829,-0.866365 2.1832568,-0.902326 1.5042312,-0.05408 2.3708825,0.529005 3.22705289,1.205656 0.8561704,0.662841 1.49885072,1.516667 1.65084755,2.522185 L -1.6301083,38.693529 c -0.097379,-0.650493 -1.1760376,-1.231767 -1.6355722,-1.253813 -0.5103534,-0.02448 -0.5903522,0.09666 -0.8941546,0.289993 -0.3038024,0.179519 -0.4557036,0.428085 -0.4557036,0.745697 0,0.220947 0.024173,0.462357 0.1622648,0.58664 0.138092,0.110473 0.3187195,0.335578 0.7191863,0.459861 l 3.83453315,1.121056 c 1.46377525,0.428085 2.30229525,1.199735 2.30229525,2.649701 0,0.428085 0.059372,0.775468 -0.092529,1.189744 -0.1519012,0.400467 -0.4004668,0.800933 -0.7456968,1.2014 -0.3314208,0.400467 -0.83545663,0.718079 -1.51210743,0.952835 -0.6766508,0.248566 -1.47758437,0.372849 -2.40280087,0.372849 -3.4384909,0 -5.1991639,-1.242828 -5.2820191,-3.728484 z"
         style="font-family:FreeSans;-inkscape-font-specification:'FreeSans Bold';stroke:#ffffff;stroke-width:0.524661;stroke-dasharray:none;stroke-opacity:1;fill:#ee0000;fill-opacity:1"
         id="path889"
         sodipodi:nodetypes="ccscscccccccccscscccscscccscccscc" /></g></g></svg>
